<svg xmlns="http://www.w3.org/2000/svg" viewBox="0 0 512 512">
<defs><clipPath id="r"><rect x="14" y="14" width="484" height="484" rx="84"/></clipPath></defs>
<rect width="512" height="512" rx="98" fill="#e8e0d0"/>
<g clip-path="url(#r)">
<polygon points="0,0 64,0 0,64" fill="#2a9d8f"/><polygon points="64,0 64,64 0,64" fill="#e9c46a"/><polygon points="64,0 128,0 64,64" fill="#3a5fa8"/><polygon points="128,0 128,64 64,64" fill="#e9c46a"/><polygon points="128,0 192,0 128,64" fill="#c86b3c"/><polygon points="192,0 192,64 128,64" fill="#2e6fbe"/><polygon points="192,0 256,0 192,64" fill="#7fc4e8"/><polygon points="256,0 256,64 192,64" fill="#7fc4e8"/><polygon points="256,0 320,0 256,64" fill="#2e6fbe"/><polygon points="320,0 320,64 256,64" fill="#e76f51"/><polygon points="320,0 384,0 384,64" fill="#2e6fbe"/><polygon points="320,0 384,64 320,64" fill="#3a5fa8"/><polygon points="384,0 448,0 384,64" fill="#f0d060"/><polygon points="448,0 448,64 384,64" fill="#3a5fa8"/><polygon points="448,0 512,0 512,64" fill="#d94f30"/><polygon points="448,0 512,64 448,64" fill="#f4a261"/><polygon points="0,64 64,64 64,128" fill="#c86b3c"/><polygon points="0,64 64,128 0,128" fill="#2e6fbe"/><polygon points="64,64 128,64 64,128" fill="#4f9cf9"/><polygon points="128,64 128,128 64,128" fill="#2e6fbe"/><polygon points="128,64 192,64 128,128" fill="#3a5fa8"/><polygon points="192,64 192,128 128,128" fill="#c86b3c"/><polygon points="192,64 256,64 192,128" fill="#c86b3c"/><polygon points="256,64 256,128 192,128" fill="#3a5fa8"/><polygon points="256,64 320,64 320,128" fill="#e76f51"/><polygon points="256,64 320,128 256,128" fill="#4f9cf9"/><polygon points="320,64 384,64 320,128" fill="#e76f51"/><polygon points="384,64 384,128 320,128" fill="#2a9d8f"/><polygon points="384,64 448,64 384,128" fill="#2a9d8f"/><polygon points="448,64 448,128 384,128" fill="#c86b3c"/><polygon points="448,64 512,64 448,128" fill="#7fc4e8"/><polygon points="512,64 512,128 448,128" fill="#f4a261"/><polygon points="0,128 64,128 0,192" fill="#e76f51"/><polygon points="64,128 64,192 0,192" fill="#2a9d8f"/><polygon points="64,128 128,128 64,192" fill="#d94f30"/><polygon points="128,128 128,192 64,192" fill="#e76f51"/><polygon points="128,128 192,128 128,192" fill="#d94f30"/><polygon points="192,128 192,192 128,192" fill="#e76f51"/><polygon points="192,128 256,128 192,192" fill="#7fc4e8"/><polygon points="256,128 256,192 192,192" fill="#4f9cf9"/><polygon points="256,128 320,128 256,192" fill="#e9c46a"/><polygon points="320,128 320,192 256,192" fill="#f4a261"/><polygon points="320,128 384,128 384,192" fill="#f4a261"/><polygon points="320,128 384,192 320,192" fill="#2e6fbe"/><polygon points="384,128 448,128 384,192" fill="#7fc4e8"/><polygon points="448,128 448,192 384,192" fill="#4f9cf9"/><polygon points="448,128 512,128 448,192" fill="#d94f30"/><polygon points="512,128 512,192 448,192" fill="#d94f30"/><polygon points="0,192 64,192 0,256" fill="#7fc4e8"/><polygon points="64,192 64,256 0,256" fill="#f4a261"/><polygon points="64,192 128,192 128,256" fill="#d94f30"/><polygon points="64,192 128,256 64,256" fill="#3a5fa8"/><polygon points="128,192 192,192 192,256" fill="#7fc4e8"/><polygon points="128,192 192,256 128,256" fill="#d94f30"/><polygon points="192,192 256,192 256,256" fill="#2a9d8f"/><polygon points="192,192 256,256 192,256" fill="#f0d060"/><polygon points="256,192 320,192 256,256" fill="#f4a261"/><polygon points="320,192 320,256 256,256" fill="#e76f51"/><polygon points="320,192 384,192 320,256" fill="#2a9d8f"/><polygon points="384,192 384,256 320,256" fill="#2a9d8f"/><polygon points="384,192 448,192 384,256" fill="#2a9d8f"/><polygon points="448,192 448,256 384,256" fill="#d94f30"/><polygon points="448,192 512,192 512,256" fill="#c86b3c"/><polygon points="448,192 512,256 448,256" fill="#3a5fa8"/><polygon points="0,256 64,256 64,320" fill="#7fc4e8"/><polygon points="0,256 64,320 0,320" fill="#f0d060"/><polygon points="64,256 128,256 128,320" fill="#7fc4e8"/><polygon points="64,256 128,320 64,320" fill="#f4a261"/><polygon points="128,256 192,256 128,320" fill="#e76f51"/><polygon points="192,256 192,320 128,320" fill="#2e6fbe"/><polygon points="192,256 256,256 256,320" fill="#4f9cf9"/><polygon points="192,256 256,320 192,320" fill="#5b8dd9"/><polygon points="256,256 320,256 320,320" fill="#e9c46a"/><polygon points="256,256 320,320 256,320" fill="#d94f30"/><polygon points="320,256 384,256 320,320" fill="#3a5fa8"/><polygon points="384,256 384,320 320,320" fill="#5b8dd9"/><polygon points="384,256 448,256 448,320" fill="#7fc4e8"/><polygon points="384,256 448,320 384,320" fill="#f4a261"/><polygon points="448,256 512,256 512,320" fill="#f0d060"/><polygon points="448,256 512,320 448,320" fill="#e9c46a"/><polygon points="0,320 64,320 0,384" fill="#f0d060"/><polygon points="64,320 64,384 0,384" fill="#e9c46a"/><polygon points="64,320 128,320 64,384" fill="#e76f51"/><polygon points="128,320 128,384 64,384" fill="#d94f30"/><polygon points="128,320 192,320 128,384" fill="#f4a261"/><polygon points="192,320 192,384 128,384" fill="#e76f51"/><polygon points="192,320 256,320 192,384" fill="#c86b3c"/><polygon points="256,320 256,384 192,384" fill="#c86b3c"/><polygon points="256,320 320,320 320,384" fill="#7fc4e8"/><polygon points="256,320 320,384 256,384" fill="#e76f51"/><polygon points="320,320 384,320 384,384" fill="#4f9cf9"/><polygon points="320,320 384,384 320,384" fill="#d94f30"/><polygon points="384,320 448,320 384,384" fill="#7fc4e8"/><polygon points="448,320 448,384 384,384" fill="#e9c46a"/><polygon points="448,320 512,320 512,384" fill="#7fc4e8"/><polygon points="448,320 512,384 448,384" fill="#d94f30"/><polygon points="0,384 64,384 0,448" fill="#5b8dd9"/><polygon points="64,384 64,448 0,448" fill="#c86b3c"/><polygon points="64,384 128,384 128,448" fill="#3a5fa8"/><polygon points="64,384 128,448 64,448" fill="#4f9cf9"/><polygon points="128,384 192,384 128,448" fill="#e76f51"/><polygon points="192,384 192,448 128,448" fill="#2a9d8f"/><polygon points="192,384 256,384 192,448" fill="#4f9cf9"/><polygon points="256,384 256,448 192,448" fill="#c86b3c"/><polygon points="256,384 320,384 320,448" fill="#2a9d8f"/><polygon points="256,384 320,448 256,448" fill="#d94f30"/><polygon points="320,384 384,384 384,448" fill="#e9c46a"/><polygon points="320,384 384,448 320,448" fill="#5b8dd9"/><polygon points="384,384 448,384 448,448" fill="#5b8dd9"/><polygon points="384,384 448,448 384,448" fill="#2e6fbe"/><polygon points="448,384 512,384 448,448" fill="#d94f30"/><polygon points="512,384 512,448 448,448" fill="#4f9cf9"/><polygon points="0,448 64,448 0,512" fill="#f0d060"/><polygon points="64,448 64,512 0,512" fill="#d94f30"/><polygon points="64,448 128,448 128,512" fill="#c86b3c"/><polygon points="64,448 128,512 64,512" fill="#f4a261"/><polygon points="128,448 192,448 192,512" fill="#f0d060"/><polygon points="128,448 192,512 128,512" fill="#f0d060"/><polygon points="192,448 256,448 256,512" fill="#c86b3c"/><polygon points="192,448 256,512 192,512" fill="#2a9d8f"/><polygon points="256,448 320,448 320,512" fill="#7fc4e8"/><polygon points="256,448 320,512 256,512" fill="#2e6fbe"/><polygon points="320,448 384,448 320,512" fill="#f0d060"/><polygon points="384,448 384,512 320,512" fill="#e9c46a"/><polygon points="384,448 448,448 448,512" fill="#e76f51"/><polygon points="384,448 448,512 384,512" fill="#f0d060"/><polygon points="448,448 512,448 512,512" fill="#7fc4e8"/><polygon points="448,448 512,512 448,512" fill="#7fc4e8"/>
<g stroke="#26211c" stroke-width="3" stroke-linejoin="round">
  <!-- pelo -->
  <path d="M256 96 C 180 96 140 150 138 210 L 172 210 C 172 160 205 128 256 128 C 307 128 340 160 340 210 L 374 210 C 372 150 332 96 256 96 Z" fill="#241a12"/>
  <!-- cara -->
  <path d="M256 130 C 195 130 168 180 168 245 C 168 320 205 372 256 372 C 307 372 344 320 344 245 C 344 180 317 130 256 130 Z" fill="#b5794f"/>
  <path d="M256 130 C 225 130 195 155 183 195 L 256 210 L 329 195 C 317 155 287 130 256 130 Z" fill="#a86a42"/>
  <!-- mejillas -->
  <ellipse cx="205" cy="272" rx="20" ry="14" fill="#c98a5c" stroke="none"/>
  <ellipse cx="307" cy="272" rx="20" ry="14" fill="#c98a5c" stroke="none"/>
  <!-- ojos cerrados felices -->
  <path d="M195 240 Q 215 222 235 240" fill="none" stroke-width="8" stroke-linecap="round"/>
  <path d="M277 240 Q 297 222 317 240" fill="none" stroke-width="8" stroke-linecap="round"/>
  <!-- nariz -->
  <path d="M250 262 Q 256 276 262 262" fill="none" stroke-width="6" stroke-linecap="round"/>
  <!-- sonrisa -->
  <path d="M198 296 Q 256 356 314 296 Q 256 322 198 296 Z" fill="#fff"/>
  <!-- diadema -->
  <path d="M148 250 C 148 140 205 84 256 84 C 307 84 364 140 364 250 L 338 250 C 338 155 300 110 256 110 C 212 110 174 155 174 250 Z" fill="#3a5fa8"/>
  <!-- auriculares -->
  <rect x="118" y="212" width="58" height="96" rx="22" fill="#4f9cf9"/>
  <rect x="336" y="212" width="58" height="96" rx="22" fill="#e9c46a"/>
  <rect x="132" y="228" width="30" height="18" rx="6" fill="#e76f51" stroke-width="2"/>
  <rect x="132" y="252" width="30" height="18" rx="6" fill="#e9c46a" stroke-width="2"/>
  <rect x="132" y="276" width="30" height="18" rx="6" fill="#2a9d8f" stroke-width="2"/>
  <rect x="350" y="228" width="30" height="18" rx="6" fill="#4f9cf9" stroke-width="2"/>
  <rect x="350" y="252" width="30" height="18" rx="6" fill="#d94f30" stroke-width="2"/>
  <rect x="350" y="276" width="30" height="18" rx="6" fill="#2e6fbe" stroke-width="2"/>
</g>
<!-- notas musicales -->
<g fill="#fff" stroke="#26211c" stroke-width="3">
  <ellipse cx="436" cy="120" rx="15" ry="11" transform="rotate(-20 436 120)"/>
  <path d="M449 116 L 449 58 L 484 66 L 484 78 L 457 71 L 457 116 Z"/>
  <ellipse cx="72" cy="404" rx="14" ry="10" transform="rotate(-20 72 404)"/>
  <path d="M84 400 L 84 348 L 92 348 L 92 400 Z"/>
</g>
</g>
<rect x="14" y="14" width="484" height="484" rx="84" fill="none" stroke="#c9bda6" stroke-width="10"/>
</svg>